<?xml version="1.0" encoding="iso-8859-1"?>
<!-- Generator: Adobe Illustrator 19.0.0, SVG Export Plug-In . SVG Version: 6.00 Build 0)  -->
<svg version="1.1" id="Capa_1" xmlns="http://www.w3.org/2000/svg" xmlns:xlink="http://www.w3.org/1999/xlink" x="0px" y="0px"
	 viewBox="0 0 503.672 503.672" style="enable-background:new 0 0 503.672 503.672;" xml:space="preserve">
<g>
	<g>
		<g>
			<path d="M496.203,177.303c4.737-4.697,7.402-11.091,7.402-17.762c-0.075-13.907-11.343-25.155-25.25-25.205h-0.086
				c-6.656,0.009-13.031,2.687-17.697,7.434l-28.542,28.538c-6.804-1.59-13.766-2.407-20.753-2.437v-81.71l32.467-56.818
				c0.083-0.145,0.078-0.31,0.152-0.458c0.231-0.513,0.408-1.047,0.529-1.596c0.164-0.531,0.275-1.076,0.329-1.629
				c0.01-0.168,0.097-0.31,0.097-0.481c-0.051-0.538-0.135-1.072-0.252-1.599c-0.05-0.255-0.046-0.509-0.119-0.758
				C440.633,0.725,384.341,0,377.703,0c-6.638,0-62.93,0.725-66.777,22.823c-0.073,0.249-0.069,0.504-0.119,0.758
				c-0.117,0.527-0.201,1.061-0.252,1.599c0,0.171,0.087,0.313,0.097,0.481c0.054,0.553,0.164,1.099,0.329,1.629
				c0.121,0.549,0.298,1.084,0.529,1.596c0.074,0.149,0.069,0.313,0.152,0.458l32.468,56.818v81.707h-33.574v-55.64
				c6.056-8.779,9.01-19.327,8.393-29.975c0-23.5-25.43-44.525-28.332-46.844c-0.208-0.167-0.462-0.207-0.68-0.351
				c-0.916-0.581-1.925-0.998-2.984-1.233c-2.125-0.379-4.314,0.06-6.129,1.227c-0.222,0.145-0.481,0.187-0.692,0.356
				c-2.902,2.32-28.332,23.344-28.332,46.844c-0.616,10.647,2.338,21.195,8.393,29.974v55.641h-25.18V92.328
				c-0.039-0.267-0.093-0.532-0.159-0.793c0.016-0.274,0.017-0.548,0.004-0.822l-8.738-44.427
				c-1.884-7.553-8.715-12.82-16.499-12.72c-7.784,0.1-14.478,5.539-16.169,13.138l-8.644,44.008
				c-0.013,0.274-0.012,0.548,0.004,0.822c-0.067,0.261-0.12,0.526-0.159,0.793v75.541h-16.787v-33.574
				c-0.011-9.267-7.52-16.776-16.787-16.787V98.386c5.175-2.975,8.374-8.482,8.393-14.452V16.787
				C159.463,7.52,151.953,0.011,142.687,0h-41.967c-9.267,0.011-16.776,7.52-16.787,16.787v67.148
				c0.02,5.97,3.218,11.477,8.393,14.452v19.122c-9.267,0.011-16.776,7.52-16.787,16.787v35.156
				c-43.778,8.093-75.528,46.3-75.471,90.82L0.24,486.426c-0.125,4.531,1.588,8.919,4.749,12.167
				c3.161,3.248,7.501,5.08,12.034,5.079H486.58c4.491,0.001,8.795-1.797,11.95-4.994c3.155-3.196,4.897-7.524,4.837-12.015
				l0.168-226.393c0.068-24.003-9.281-47.076-26.038-64.261L496.203,177.303z M472.482,153.598c1.537-1.576,3.643-2.468,5.844-2.475
				h0.025c3.412-0.042,6.508,1.993,7.822,5.142s0.583,6.781-1.847,9.177l-19.604,19.604c-4.711-3.368-9.731-6.28-14.993-8.698
				L472.482,153.598z M328.685,25.302c5.418-3.498,22.329-8.515,49.018-8.515s43.6,5.017,49.018,8.515v0l-28.707,50.239h-40.621
				L328.685,25.302z M360.916,109.115V92.328h33.574v16.787H360.916z M394.49,125.902v41.967h-33.574v-41.967H394.49z
				 M268.588,82.254c0-10.239,9.622-21.948,16.787-28.979c7.165,7.031,16.787,18.74,16.787,28.979
				c0.35,6.406-1.042,12.788-4.026,18.467h-25.523C269.63,95.041,268.239,88.66,268.588,82.254z M276.982,134.295v-16.787h16.787
				v16.787H276.982z M293.768,151.082v16.787h-16.787v-16.787H293.768z M209.74,49.934l6.678,34h-13.21L209.74,49.934z
				 M201.441,100.721h16.787v67.148h-16.787V100.721z M100.719,16.787h41.967l0.008,67.148h-41.976V16.787z M92.326,134.295
				c9.267-0.011,16.776-7.52,16.787-16.787v-16.787h25.18v16.787c0.011,9.267,7.52,16.776,16.787,16.787v33.574H92.395l-0.07,0.004
				V134.295z M486.748,260.254l-0.168,226.631l-469.557-0.238l-0.168-226.394c-0.016-20.045,7.936-39.274,22.105-53.453
				c14.168-14.179,33.392-22.146,53.436-22.145h318.811c20.045,0,39.268,7.966,53.436,22.145
				C478.812,220.98,486.764,240.209,486.748,260.254z"/>
			<path d="M315.784,235.082h-0.057c-14.483,0.031-28.296,6.107-38.106,16.762l-25.82,27.607l-25.84-27.631
				c-9.809-10.642-23.613-16.708-38.086-16.738h-0.057c-14.447,0.04-28.22,6.114-37.992,16.754
				c-20.63,22.567-20.628,57.148,0.004,79.713l95.844,102.32c1.587,1.694,3.805,2.656,6.127,2.656s4.54-0.961,6.127-2.656
				l95.844-102.32c20.631-22.566,20.631-57.147,0-79.713C344.002,241.195,330.23,235.121,315.784,235.082z M341.539,320.057
				L341.539,320.057l-0.013,0.017l-89.725,95.778l-89.738-95.795c-14.683-16.068-14.678-40.685,0.012-56.746
				c6.616-7.237,15.953-11.385,25.758-11.442h0.037c9.832,0.046,19.2,4.19,25.848,11.434l31.951,34.164
				c1.624,1.629,3.83,2.545,6.131,2.545s4.507-0.916,6.131-2.545l31.93-34.139c6.649-7.257,16.026-11.411,25.869-11.459h0.037
				c9.805,0.057,19.14,4.205,25.754,11.443C356.216,279.371,356.223,303.989,341.539,320.057z"/>
			<path d="M41.965,260.262c-2.226-0.001-4.362,0.884-5.936,2.458c-1.574,1.574-2.458,3.709-2.458,5.936V377.77
				c0,4.636,3.758,8.393,8.393,8.393s8.393-3.758,8.393-8.393V268.656c0.001-2.226-0.884-4.361-2.458-5.936
				C46.327,261.146,44.191,260.262,41.965,260.262z"/>
			<path d="M41.965,402.951c-2.226-0.001-4.362,0.884-5.936,2.458c-1.574,1.574-2.458,3.709-2.458,5.936v33.574
				c0,4.636,3.758,8.393,8.393,8.393s8.393-3.758,8.393-8.393v-33.574c0.001-2.226-0.884-4.362-2.458-5.936
				C46.327,403.834,44.191,402.95,41.965,402.951z"/>
		</g>
	</g>
</g>
<g>
</g>
<g>
</g>
<g>
</g>
<g>
</g>
<g>
</g>
<g>
</g>
<g>
</g>
<g>
</g>
<g>
</g>
<g>
</g>
<g>
</g>
<g>
</g>
<g>
</g>
<g>
</g>
<g>
</g>
</svg>
